<?xml version="1.0" standalone="no"?>
<!DOCTYPE svg PUBLIC "-//W3C//DTD SVG 20010904//EN"
 "http://www.w3.org/TR/2001/REC-SVG-20010904/DTD/svg10.dtd">
<svg version="1.0" xmlns="http://www.w3.org/2000/svg"
 width="400.000000pt" height="400.000000pt" viewBox="0 0 400.000000 400.000000"
 preserveAspectRatio="xMidYMid meet">
<metadata>
Created by potrace 1.14, written by Peter Selinger 2001-2017
</metadata>
<g transform="translate(0.000000,400.000000) scale(0.100000,-0.100000)"
fill="#000000" stroke="none">
<path d="M1827 3960 c-34 -35 -37 -41 -25 -59 7 -12 18 -21 25 -21 7 0 13 -7
13 -16 0 -12 6 -15 21 -11 13 4 22 0 27 -11 8 -21 43 -51 60 -52 8 0 12 -8 10
-17 -2 -11 -11 -17 -23 -15 -11 1 -30 3 -43 4 -22 0 -44 18 -23 18 22 0 10 18
-15 23 -30 5 -46 -20 -21 -34 42 -24 -25 -77 -83 -66 -27 6 -30 4 -39 -36 -8
-34 -10 -36 -7 -9 4 48 -11 26 -29 -43 -10 -38 -16 -103 -16 -177 0 -72 -6
-139 -15 -175 -8 -32 -17 -70 -19 -85 -2 -15 -8 -35 -13 -45 -13 -22 -104 -57
-267 -100 -71 -18 -147 -39 -169 -45 -37 -12 -136 -90 -136 -109 0 -9 -48 -88
-60 -99 -6 -5 -30 -61 -66 -157 -13 -34 -36 -133 -50 -220 -27 -155 -28 -165
-28 -608 -1 -396 1 -459 16 -528 10 -43 18 -86 17 -95 -1 -37 -38 105 -49 186
-18 138 -15 132 -68 125 -34 -5 -43 -3 -38 6 5 7 1 18 -10 25 -11 9 -13 15 -6
20 8 5 7 17 -5 41 -14 28 -19 32 -35 24 -10 -5 -18 -7 -18 -3 0 3 -7 1 -15 -6
-8 -7 -12 -16 -9 -21 3 -5 -2 -19 -10 -31 -12 -16 -13 -25 -4 -35 8 -10 7 -18
-5 -31 -9 -9 -20 -29 -26 -45 -6 -15 -16 -27 -23 -26 -10 0 -10 2 0 6 15 6 16
23 1 23 -26 0 -53 -50 -26 -50 8 -1 7 -5 -4 -13 -9 -7 -14 -18 -11 -26 2 -7
-1 -17 -9 -21 -10 -7 -10 -11 0 -24 9 -10 10 -16 3 -16 -7 0 -9 -7 -5 -17 4
-11 3 -14 -5 -9 -8 5 -12 -1 -12 -16 -1 -21 -2 -22 -14 -5 -14 18 -36 23 -36
8 0 -5 6 -12 13 -14 9 -4 9 -6 0 -6 -7 -1 -13 -7 -13 -14 0 -9 -10 -12 -31 -9
-24 4 -29 9 -27 26 2 12 10 20 20 20 9 -1 14 4 12 11 -4 9 -24 12 -65 11 -42
-1 -59 2 -59 11 0 15 -36 18 -45 3 -3 -5 -15 -10 -26 -10 -16 0 -19 7 -19 40
0 43 -14 51 -37 22 -12 -15 -13 -15 -11 10 3 31 1 33 -30 24 -21 -7 -22 -9 -7
-20 13 -9 14 -17 6 -39 -12 -31 -19 -32 -68 -12 -19 8 -37 15 -39 15 -2 0 -4
-295 -4 -655 l0 -655 39 0 c41 0 50 10 52 58 1 20 3 22 6 8 4 -17 8 -14 19 13
8 18 11 37 8 43 -3 5 3 16 14 24 13 9 18 21 15 34 -4 15 0 20 15 20 35 0 92
29 92 48 0 15 2 15 10 2 8 -12 10 -11 10 6 0 24 35 64 55 64 8 0 14 5 12 11
-1 6 21 17 48 25 63 17 65 17 65 2 0 -13 53 -48 70 -48 5 0 22 14 37 30 23 25
38 31 78 33 28 2 57 7 64 12 10 6 23 -2 44 -29 29 -37 30 -37 51 -18 17 16 31
18 76 13 53 -6 56 -7 76 -50 27 -56 59 -80 96 -74 16 2 36 -1 43 -7 11 -9 22
-6 49 15 19 15 43 25 52 23 21 -4 29 -60 14 -102 -6 -16 -13 -58 -16 -93 l-6
-63 841 0 c515 0 841 4 841 9 0 5 -4 21 -10 35 -13 34 -31 139 -35 196 -1 25
-10 73 -20 107 -17 61 -17 63 3 95 27 43 16 102 -25 137 -33 28 -39 56 -18 87
8 13 15 35 15 49 0 34 68 112 145 166 50 35 90 97 165 259 88 188 130 312 137
404 6 76 -12 199 -32 220 -8 7 -11 23 -8 34 2 11 -4 56 -15 99 -54 205 -64
242 -81 298 -11 33 -29 112 -41 175 -23 125 -56 239 -74 255 -6 6 -35 46 -65
90 -102 150 -115 163 -230 219 -206 101 -341 180 -347 203 -3 12 3 46 14 76
31 83 62 223 62 282 0 75 -35 272 -60 336 -12 30 -38 79 -58 109 l-38 55 -194
2 -195 3 -38 -40z m136 -255 c20 -14 20 -46 0 -52 -15 -5 -47 42 -38 57 8 13
16 12 38 -5z m-265 -169 c0 -40 -6 -84 -13 -96 -11 -21 -12 -18 -11 28 0 29 4
52 9 52 4 0 7 20 7 45 0 25 2 45 5 45 3 0 4 -33 3 -74z m-231 -764 c53 -146
133 -356 143 -377 5 -11 24 -51 42 -90 26 -56 32 -82 32 -129 -1 -58 -1 -58
12 -26 8 18 14 36 14 41 0 5 23 56 50 114 28 58 50 109 50 114 0 39 199 386
221 386 7 0 23 -20 36 -45 13 -24 35 -64 50 -89 84 -143 211 -404 273 -558 7
-18 16 -33 20 -33 13 0 40 90 40 133 0 22 -5 56 -11 77 -10 33 -8 43 28 116
22 43 48 101 58 127 10 26 21 50 25 52 8 5 100 -32 100 -40 0 -13 -106 -225
-141 -282 -40 -65 -41 -70 -29 -108 33 -111 34 -131 16 -193 l-19 -60 41 -99
c34 -84 90 -257 150 -461 8 -29 13 -55 10 -57 -3 -3 -22 -6 -42 -8 -37 -2 -38
-1 -60 58 -13 33 -26 71 -30 85 -6 22 -5 23 6 9 12 -15 15 -15 25 7 8 18 8 24
-5 29 -8 3 -19 0 -23 -7 -6 -10 -9 -9 -12 2 -22 69 -73 203 -91 240 l-24 44
-10 -54 c-6 -30 -16 -84 -22 -120 -15 -93 -41 -200 -49 -200 -7 0 -141 253
-141 266 0 5 4 2 10 -6 5 -8 11 -12 13 -10 10 10 15 80 6 80 -5 0 -7 13 -5 30
3 31 2 32 -59 45 -25 5 -35 18 -60 68 -38 79 -78 147 -86 147 -9 0 -64 -116
-79 -165 -28 -91 -44 -129 -91 -217 -27 -51 -62 -117 -77 -146 -14 -29 -31
-51 -36 -49 -5 2 -30 85 -55 184 l-45 181 -28 -70 c-27 -70 -48 -105 -48 -80
0 22 81 357 91 374 10 20 12 34 3 25 -4 -4 -21 28 -39 71 -18 42 -48 113 -67
157 -20 44 -70 170 -113 280 -42 110 -86 222 -96 249 -13 32 -16 53 -10 59 11
11 80 25 96 20 6 -2 25 -43 42 -91z m-449 -69 c-13 -16 -48 -17 -48 -2 0 7 8
17 17 24 21 16 47 -3 31 -22z m1352 -213 c0 -5 -2 -10 -4 -10 -3 0 -8 5 -11
10 -3 6 -1 10 4 10 6 0 11 -4 11 -10z m280 -640 c0 -5 -2 -10 -4 -10 -3 0 -8
5 -11 10 -3 6 -1 10 4 10 6 0 11 -4 11 -10z m-460 -125 c0 -18 -4 -23 -15 -19
-8 4 -15 10 -15 16 0 5 5 6 10 3 6 -3 10 1 10 9 0 9 2 16 5 16 3 0 5 -11 5
-25z m17 -17 c-3 -8 -6 -5 -6 6 -1 11 2 17 5 13 3 -3 4 -12 1 -19z m-9 -53
c-3 -3 -9 2 -12 12 -6 14 -5 15 5 6 7 -7 10 -15 7 -18z m-1451 -201 c-3 -3
-12 -4 -19 -1 -8 3 -5 6 6 6 11 1 17 -2 13 -5z m21 -65 c3 -29 -12 -54 -27
-45 -12 8 -15 59 -4 70 12 12 28 0 31 -25z m-177 -2 c-1 -4 -1 -19 -1 -33 0
-19 -4 -25 -15 -20 -10 3 -15 -1 -15 -12 0 -14 -2 -15 -10 -2 -6 10 -5 17 5
23 8 4 15 19 15 33 0 14 5 24 11 22 6 -2 10 -7 10 -11z m709 -107 c0 -11 -4
-20 -9 -20 -11 0 -22 26 -14 34 12 12 23 5 23 -14z m-535 -29 c3 -5 1 -12 -5
-16 -5 -3 -10 1 -10 9 0 18 6 21 15 7z m-530 -20 c3 -5 1 -12 -5 -16 -14 -9
-52 4 -45 16 8 12 42 12 50 0z m1295 -81 c0 -46 2 -50 23 -50 13 0 28 -5 33
-10 7 -7 20 10 39 50 l29 61 28 -53 c15 -29 27 -57 28 -63 0 -6 -43 -11 -105
-13 l-105 -3 0 66 c0 51 3 65 15 65 11 0 15 -12 15 -50z m320 -15 l0 -66 -37
26 -38 25 -3 -25 c-2 -17 -9 -25 -23 -25 -17 0 -19 7 -19 60 0 33 4 60 9 60 5
0 23 -11 39 -25 38 -32 42 -31 42 5 0 20 5 30 15 30 12 0 15 -14 15 -65z m102
40 c14 -30 24 -32 33 -5 9 28 22 25 30 -7 l6 -26 19 31 c19 31 40 42 40 22 0
-16 -45 -120 -52 -120 -3 0 -11 15 -18 33 l-11 32 -15 -34 c-8 -19 -17 -31
-21 -27 -13 13 -51 111 -47 118 10 15 25 8 36 -17z m306 -28 c3 -42 6 -47 28
-47 15 0 24 -6 24 -15 0 -11 -12 -15 -45 -15 l-45 0 0 58 c0 32 3 62 7 66 16
15 28 -3 31 -47z m102 28 c0 -32 5 -31 34 2 13 15 28 23 35 19 8 -5 4 -16 -14
-38 l-26 -31 27 -28 28 -29 -27 0 c-15 0 -30 7 -33 15 -4 8 -10 15 -15 15 -5
0 -9 -7 -9 -15 0 -8 -7 -15 -15 -15 -12 0 -15 13 -15 58 0 32 3 62 7 65 13 14
23 6 23 -18z m188 8 c2 -9 -7 -13 -27 -13 -36 0 -44 -27 -9 -32 30 -4 34 -26
6 -31 -20 -4 -20 -4 5 -6 17 0 27 -7 27 -16 0 -11 -12 -15 -47 -15 l-48 0 2
62 c1 35 2 64 3 66 1 10 84 -5 88 -15z m103 -4 c15 -15 19 -27 14 -42 -4 -12
-7 -32 -7 -44 0 -27 -14 -29 -40 -6 -17 15 -18 15 -18 0 0 -10 -7 -17 -15 -17
-12 0 -15 14 -15 65 l0 65 30 0 c17 0 39 -9 51 -21z m-1197 -44 c14 -31 26
-57 26 -58 0 -1 -26 -3 -59 -3 l-58 -1 26 58 c14 32 29 58 32 59 4 0 18 -25
33 -55z m722 13 c10 -24 21 -50 25 -59 6 -13 -1 -16 -52 -15 -32 0 -59 2 -59
3 0 10 56 113 61 113 4 0 15 -19 25 -42z m-1736 -45 c0 -14 7 -23 23 -26 16
-3 14 -5 -9 -6 -26 -1 -33 4 -38 24 -4 14 -14 29 -24 32 -9 3 -24 12 -32 18
-8 7 -24 15 -35 18 -11 3 1 5 28 4 26 -1 47 2 47 8 0 5 9 -3 20 -20 11 -16 20
-40 20 -52z m28 48 c3 -8 -1 -12 -9 -9 -7 2 -15 10 -17 17 -3 8 1 12 9 9 7 -2
15 -10 17 -17z m445 -107 c4 -4 7 -12 7 -18 0 -6 -9 3 -20 19 -11 17 -20 39
-19 50 0 14 4 11 12 -12 7 -17 15 -35 20 -39z m1264 -156 c-2 -18 -4 -4 -4 32
0 36 2 50 4 33 2 -18 2 -48 0 -65z m93 40 c-4 -49 -5 -50 -8 -14 -3 34 2 66
10 66 2 0 1 -24 -2 -52z m211 17 c30 43 39 44 38 3 -1 -30 -2 -31 -8 -8 l-7
25 -25 -37 -25 -36 -24 36 -25 36 -6 -60 -6 -59 -1 70 -1 70 33 -38 33 -37 24
35z m-118 -74 c-10 -9 -12 -9 -5 -1 6 7 13 28 13 45 l2 30 4 -29 c3 -19 -1
-34 -14 -45z m-1278 -92 c11 -17 -1 -21 -15 -4 -8 9 -8 15 -2 15 6 0 14 -5 17
-11z m85 -99 c0 -5 -7 -7 -15 -4 -8 4 -15 8 -15 10 0 2 7 4 15 4 8 0 15 -4 15
-10z m-33 -152 c-3 -7 -5 -2 -5 12 0 14 2 19 5 13 2 -7 2 -19 0 -25z m13 -28
c0 -5 -4 -10 -10 -10 -5 0 -10 5 -10 10 0 6 5 10 10 10 6 0 10 -4 10 -10z m51
-53 c12 -22 12 -22 -10 -3 -11 11 -21 23 -21 28 0 14 19 -1 31 -25z"/>
<path d="M1955 2453 c-107 -189 -102 -179 -126 -263 -11 -41 -39 -111 -60
-154 -21 -44 -39 -89 -39 -100 0 -33 44 -216 52 -216 4 0 28 39 52 88 33 65
46 83 51 70 4 -10 11 -15 16 -12 5 3 9 -2 9 -10 0 -9 5 -16 10 -16 6 0 10 6
10 14 0 8 2 21 5 28 4 10 -2 14 -21 14 -15 -1 -29 5 -32 13 -3 9 1 11 17 6 19
-6 21 -3 21 42 0 36 -3 44 -11 33 -8 -11 -9 -9 -3 10 15 55 103 221 120 227
13 4 156 -282 194 -387 33 -93 69 -163 85 -164 6 -1 13 22 17 49 3 28 13 70
22 94 9 24 16 55 16 70 0 46 -253 596 -315 684 -11 16 -21 3 -90 -120z"/>
<path d="M1820 1690 c0 -5 5 -10 10 -10 6 0 10 5 10 10 0 6 -4 10 -10 10 -5 0
-10 -4 -10 -10z"/>
<path d="M1850 1665 c0 -8 2 -15 4 -15 2 0 6 7 10 15 3 8 1 15 -4 15 -6 0 -10
-7 -10 -15z"/>
<path d="M1795 1641 c-6 -11 33 -26 43 -16 4 3 0 10 -8 15 -19 12 -27 12 -35
1z"/>
<path d="M1720 1590 c0 -5 7 -7 15 -4 8 4 15 8 15 10 0 2 -7 4 -15 4 -8 0 -15
-4 -15 -10z"/>
<path d="M2282 1565 c-21 -24 -19 -33 4 -17 10 6 27 42 20 42 -1 0 -12 -11
-24 -25z"/>
<path d="M2325 1530 c-10 -11 -24 -16 -37 -12 -18 4 -19 2 -9 -16 12 -23 51
-20 51 4 0 13 12 18 33 15 13 -2 7 17 -7 22 -8 3 -22 -3 -31 -13z"/>
<path d="M2560 1490 c0 -5 7 -10 15 -10 8 0 15 5 15 10 0 6 -7 10 -15 10 -8 0
-15 -4 -15 -10z"/>
<path d="M2614 1346 c-3 -9 -10 -13 -15 -10 -5 3 -9 -2 -9 -10 0 -8 10 -21 22
-27 18 -10 24 -8 35 7 16 21 17 34 3 34 -5 0 -10 -7 -10 -15 0 -8 -7 -15 -15
-15 -18 0 -19 12 -3 28 6 6 9 15 5 18 -4 4 -9 -1 -13 -10z"/>
<path d="M1645 1120 c-3 -5 -1 -10 4 -10 6 0 11 5 11 10 0 6 -2 10 -4 10 -3 0
-8 -4 -11 -10z"/>
<path d="M2600 1144 c0 -31 23 -28 28 4 2 15 -2 22 -12 22 -11 0 -16 -9 -16
-26z"/>
<path d="M1410 1110 c0 -5 5 -10 10 -10 6 0 10 5 10 10 0 6 -4 10 -10 10 -5 0
-10 -4 -10 -10z"/>
<path d="M1845 3820 c3 -5 10 -10 16 -10 5 0 9 5 9 10 0 6 -7 10 -16 10 -8 0
-12 -4 -9 -10z"/>
<path d="M1750 3730 c0 -5 5 -10 10 -10 6 0 10 5 10 10 0 6 -4 10 -10 10 -5 0
-10 -4 -10 -10z"/>
<path d="M303 45 c-3 -9 -3 -19 1 -22 3 -4 6 1 6 11 0 9 5 14 10 11 6 -3 10
-1 10 4 0 17 -20 13 -27 -4z"/>
<path d="M3275 10 c-14 -6 0 -9 45 -9 45 -1 60 2 50 9 -18 12 -68 12 -95 0z"/>
</g>
</svg>
